<svg width="445" height="78" viewBox="0 0 445 78" fill="none" xmlns="http://www.w3.org/2000/svg">
<path d="M148.363 11.7399C165.459 11.0504 182.516 9.52229 199.584 10.7299C233.669 11.831 267.603 16.7216 300.438 25.5306C327.974 32.7843 355.289 42.7902 380.459 55.0669L362.535 69.0847L445 78.0001L393.82 12.5584L391.203 37.4951C362.733 25.145 333.881 16.3135 304.09 9.98947C269.749 2.64707 234.608 -0.580607 199.678 0.0852714C182.196 -0.23998 164.802 2.19881 147.488 3.80496C130.332 7.00544 113.033 9.18521 96.3786 14.394C62.4959 22.5087 30.7649 37.1651 0 52.7168C31.5789 38.7405 63.744 25.857 97.6054 19.572C114.25 15.2763 131.435 14.0226 148.363 11.7399Z" fill="white"/>
</svg>
