<svg width="165" height="35" viewBox="0 0 165 35" fill="none" xmlns="http://www.w3.org/2000/svg">
<g clip-path="url(#clip0_2057_562)">
<path d="M6.00404 18.7482L2.56833 26.1863H0L10.9025 1.91895H13.5898L24.4752 26.1863H21.8048L18.4031 18.7482L6.00404 18.7482ZM12.1781 4.94174L7.10952 16.2347H17.3146V16.1838L12.2461 4.94174H12.1781Z" fill="white"/>
<path d="M24.3712 11.8025V26.2374H21.752V9.15332H31.5999V11.8025H24.3712Z" fill="white"/>
<path d="M31.1943 9.22127H33.5246V5.07764H36.1608V9.22127H43.3555V11.8535H36.1608V21.4653C36.1608 22.4843 36.7673 23.1975 37.9808 23.6051H38.423C39.9309 23.3674 40.6851 22.6145 40.6851 21.3464V18.6973H40.7531C41.1613 18.6973 42.0174 18.72 43.3215 18.7653V21.3974C43.3215 23.5146 42.193 25.0655 39.9367 26.0506C39.3244 26.1752 38.8424 26.2374 38.4911 26.2374H38.0488C36.6881 26.2374 35.4521 25.524 34.3409 24.0976C33.7513 23.2033 33.4565 22.2863 33.4565 21.3465V11.8535H31.1944V9.22127H31.1943Z" fill="white"/>
<path d="M54.1048 8.50781H54.1728C57.6876 8.50781 60.3921 10.2458 62.2859 13.7213C62.7847 15.0913 63.0342 16.3026 63.0342 17.3554C63.0342 20.1858 61.7982 22.5747 59.3264 24.5218C57.7728 25.6088 56.1174 26.1521 54.3599 26.1521H54.1048C54.0707 26.1521 54.0537 26.1692 54.0537 26.2031L53.9177 26.1521H53.6625C51.7122 26.1521 49.8297 25.337 48.0157 23.7067L47.9477 24.1313V34.9998H45.3114V11.4627H44.0527V8.83045H47.9477V10.5117L48.0157 10.9533C49.7958 9.32297 51.8257 8.50781 54.1048 8.50781ZM47.9477 17.3554C47.9477 19.7443 49.1213 21.6068 51.4684 22.9425C52.4661 23.3615 53.3675 23.5709 54.1728 23.5709C56.1457 23.5709 57.8636 22.6484 59.3264 20.8028C59.9952 19.7274 60.3298 18.663 60.3298 17.6101V17.0497C60.3298 15.0347 59.3264 13.3591 57.3194 12.0231C56.3668 11.4345 55.3575 11.14 54.2919 11.14H54.0537C52.1033 11.14 50.4479 12.0231 49.0873 13.7892C48.3274 14.8874 47.9477 16.0762 47.9477 17.3554Z" fill="white"/>
<path d="M62.7285 0H66.6915V10.41C67.8481 9.57233 69.1858 9.15334 70.7055 9.15334C73.0526 9.15334 74.9406 10.2856 76.3693 12.5498C76.8681 13.5801 77.1177 14.5197 77.1177 15.3688V26.1694H74.5494V26.1015C74.5494 24.5166 74.5265 20.9219 74.4813 15.3179C74.4813 14.2989 73.8746 13.314 72.6615 12.363C71.9131 11.9894 71.1589 11.8026 70.3993 11.8026C69.0839 11.8026 67.9727 12.5328 67.0657 13.9933C66.8161 14.5707 66.6915 15.0915 66.6915 15.5556V26.2374L66.2493 26.1694H64.0551V2.63222H62.7286L62.7285 0Z" fill="white"/>
<path d="M87.7644 8.59277C90.5878 8.59277 92.952 9.80993 94.857 12.244C95.9566 13.8631 96.5068 15.5159 96.5068 17.2028V17.831C96.5068 19.8123 95.6845 21.7369 94.0405 23.605C92.1696 25.3599 90.1627 26.2373 88.0195 26.2373H87.5094C84.5838 26.2373 82.1517 24.8955 80.2127 22.2124C79.2943 20.6841 78.835 19.0538 78.835 17.3216C78.835 15.1253 79.674 13.0931 81.3523 11.225C83.1211 9.4703 85.2584 8.59277 87.7644 8.59277ZM81.4203 17.3216V17.6272C81.4203 19.8009 82.5258 21.601 84.7369 23.0275C85.7459 23.4919 86.7099 23.7238 87.6284 23.7238H87.8324C90.0546 23.7238 91.852 22.6143 93.2241 20.3953C93.7343 19.3991 93.9895 18.3972 93.9895 17.3895C93.9895 15.0459 92.816 13.1609 90.4688 11.7344C89.4593 11.3157 88.4958 11.1061 87.5773 11.1061C85.899 11.1061 84.3286 11.8591 82.8659 13.3647C81.902 14.6102 81.4203 15.929 81.4203 17.3216Z" fill="white"/>
<path d="M97.4932 9.22127H99.8234V5.07764H102.46V9.22127H109.654V11.8535H102.46V21.4653C102.46 22.4843 103.066 23.1975 104.28 23.6051H104.722C106.23 23.3674 106.984 22.6145 106.984 21.3464V18.6973H107.052C107.46 18.6973 108.316 18.72 109.62 18.7653V21.3974C109.62 23.5146 108.492 25.0655 106.236 26.0506C105.623 26.1752 105.141 26.2374 104.79 26.2374H104.348C102.987 26.2374 101.751 25.524 100.64 24.0976C100.05 23.2033 99.7554 22.2863 99.7554 21.3465V11.8535H97.4932V9.22127H97.4932Z" fill="white"/>
<path d="M119.264 8.59277C122.088 8.59277 124.452 9.80993 126.357 12.244C127.457 13.8631 128.007 15.5159 128.007 17.2028V17.831C128.007 19.8123 127.185 21.7369 125.541 23.605C123.67 25.3599 121.663 26.2373 119.52 26.2373H119.009C116.084 26.2373 113.652 24.8955 111.713 22.2124C110.794 20.6841 110.335 19.0538 110.335 17.3216C110.335 15.1253 111.174 13.0931 112.852 11.225C114.621 9.4703 116.758 8.59277 119.264 8.59277ZM112.92 17.3216V17.6272C112.92 19.8009 114.026 21.601 116.237 23.0275C117.246 23.4919 118.21 23.7238 119.128 23.7238H119.332C121.555 23.7238 123.352 22.6143 124.724 20.3953C125.234 19.3991 125.49 18.3972 125.49 17.3895C125.49 15.0459 124.316 13.1609 121.969 11.7344C120.959 11.3157 119.996 11.1061 119.077 11.1061C117.399 11.1061 115.829 11.8591 114.366 13.3647C113.402 14.6102 112.92 15.929 112.92 17.3216Z" fill="white"/>
<path d="M129.963 22.7222H132.293V26.1017C132.293 26.1696 132.259 26.2035 132.191 26.2035H129.963V22.7222Z" fill="white"/>
<path d="M140.082 18.7482L136.646 26.1863H134.078L144.981 1.91895H147.668L158.553 26.1863H155.883L152.481 18.7482H140.082ZM146.256 4.94178L141.188 16.2348H151.393V16.1839L146.324 4.94178H146.256Z" fill="white"/>
<path d="M164.251 26.2373H161.598V11.8534H160.288V9.22122H164.251V26.2373ZM162.873 2.9209C163.463 2.9209 163.965 3.12759 164.379 3.54075C164.792 3.95413 165 4.45511 165 5.04363C165 5.63244 164.792 6.13343 164.379 6.54659C163.965 6.95996 163.463 7.16644 162.873 7.16644C162.284 7.16644 161.782 6.95996 161.368 6.54659C160.954 6.13343 160.747 5.63248 160.747 5.04363C160.747 4.45511 160.954 3.95413 161.368 3.54075C161.782 3.12759 162.284 2.9209 162.873 2.9209Z" fill="white"/>
</g>
<defs>
<clipPath id="clip0_2057_562">
<rect width="165" height="35" fill="white"/>
</clipPath>
</defs>
</svg>
