<svg width="130" height="33" viewBox="0 0 130 33" fill="none" xmlns="http://www.w3.org/2000/svg">
<g clip-path="url(#clip0_2167_13377)">
<mask id="mask0_2167_13377" style="mask-type:luminance" maskUnits="userSpaceOnUse" x="0" y="0" width="130" height="33">
<path d="M0 0.0883789H129.949V32.0021H0V0.0883789Z" fill="white"/>
</mask>
<g mask="url(#mask0_2167_13377)">
<path d="M34.1522 11.6182H47.31V14.0297H42.1364V27.5863H39.2913V14.0297H34.1406V11.6182H34.1522ZM46.7478 16.0243H49.1798V18.2556H49.2258C49.306 17.94 49.4551 17.6358 49.6731 17.3428C49.8911 17.0497 50.1549 16.7681 50.4647 16.5314C50.7745 16.2835 51.1185 16.092 51.4971 15.9341C51.8756 15.7877 52.2656 15.7088 52.6556 15.7088C52.954 15.7088 53.1719 15.7202 53.2867 15.7314C53.4014 15.7426 53.5161 15.7652 53.6423 15.7764V18.2331C53.4587 18.1993 53.2752 18.1767 53.0801 18.1541C52.8852 18.1315 52.7016 18.1203 52.518 18.1203C52.0821 18.1203 51.6692 18.2105 51.2791 18.3796C50.8891 18.5485 50.5565 18.8078 50.2696 19.1346C49.9829 19.4726 49.7534 19.8782 49.5814 20.3741C49.4093 20.8699 49.3289 21.4334 49.3289 22.0758V27.575H46.7364V16.0243H46.7478ZM65.5612 27.5863H63.0145V25.9748H62.9686C62.6474 26.5609 62.177 27.0228 61.5461 27.3722C60.9152 27.7215 60.2728 27.9018 59.619 27.9018C58.0703 27.9018 56.9461 27.53 56.2578 26.775C55.5694 26.0199 55.2254 24.8818 55.2254 23.3604V16.0243H57.8179V23.1125C57.8179 24.1268 58.0129 24.848 58.4143 25.2649C58.8045 25.6818 59.3665 25.896 60.0778 25.896C60.6283 25.896 61.0758 25.8171 61.4428 25.648C61.8099 25.479 62.1083 25.2649 62.3261 24.9831C62.5556 24.7127 62.7161 24.3746 62.8194 23.9914C62.9228 23.6083 62.9686 23.1914 62.9686 22.7407V16.0356H65.5612V27.5863ZM69.9777 23.8787C70.0579 24.6225 70.3448 25.1408 70.838 25.4452C71.3428 25.7381 71.9393 25.896 72.6391 25.896C72.88 25.896 73.1553 25.8734 73.465 25.8396C73.7636 25.8058 74.0566 25.7338 74.3368 25.6256C74.6122 25.524 74.8302 25.3663 75.0137 25.1634C75.1857 24.9605 75.266 24.7015 75.2546 24.3746C75.2431 24.0478 75.1169 23.7774 74.8875 23.5745C74.658 23.3604 74.3713 23.2027 74.0157 23.0673C73.6186 22.9298 73.2123 22.8207 72.7997 22.7407C72.3408 22.6505 71.8819 22.549 71.4117 22.4476C70.9297 22.3461 70.4595 22.211 70.0121 22.0645C69.5646 21.9179 69.1632 21.7152 68.8075 21.456C68.4519 21.2081 68.1652 20.8813 67.9588 20.4869C67.7408 20.0925 67.6375 19.6078 67.6375 19.0219C67.6375 18.3908 67.7981 17.8725 68.1079 17.4443C68.4175 17.0159 68.819 16.6779 69.2895 16.4187C69.7712 16.1596 70.2988 15.9793 70.8839 15.8665C71.469 15.7652 72.0311 15.7088 72.5588 15.7088C73.1668 15.7088 73.7518 15.7764 74.3024 15.9005C74.8531 16.0243 75.3578 16.2271 75.8053 16.5202C76.2526 16.8018 76.6197 17.1738 76.918 17.6246C77.2162 18.0753 77.3997 18.6275 77.48 19.2697H74.7728C74.6466 18.6612 74.3713 18.2443 73.9239 18.0414C73.4764 17.8273 72.9602 17.7259 72.3866 17.7259C72.2031 17.7259 71.9853 17.7371 71.7328 17.7709C71.4907 17.8033 71.2523 17.8599 71.0215 17.94C70.8037 18.019 70.6201 18.1429 70.4595 18.3006C70.3104 18.4584 70.2301 18.6612 70.2301 18.9205C70.2301 19.2359 70.3448 19.4838 70.5628 19.6755C70.7806 19.867 71.0675 20.0247 71.4231 20.1601C71.8201 20.2976 72.2265 20.4069 72.6391 20.4869C73.0979 20.577 73.5682 20.6784 74.05 20.7797C74.5204 20.8813 74.9793 21.0164 75.4382 21.1629C75.8971 21.3095 76.2984 21.5123 76.6542 21.7714C77.0097 22.0307 77.2964 22.3461 77.5144 22.7293C77.7324 23.1125 77.8471 23.597 77.8471 24.1605C77.8471 24.848 77.6866 25.4227 77.3653 25.9072C77.0442 26.3806 76.6311 26.775 76.1264 27.0678C75.6217 27.3609 75.0482 27.5863 74.4286 27.7215C73.822 27.8551 73.2028 27.9232 72.5817 27.9244C71.8361 27.9244 71.1477 27.8454 70.5168 27.6765C69.8859 27.5074 69.3353 27.2595 68.8764 26.9327C68.4175 26.5946 68.0504 26.1777 67.7866 25.6818C67.5228 25.186 67.385 24.5887 67.3621 23.9013H69.9777V23.8787ZM78.5353 16.0243H80.4971V12.5535H83.0896V16.0243H85.4298V17.9288H83.0896V24.1042C83.0896 24.3746 83.1011 24.5999 83.124 24.8028C83.1469 24.9945 83.2043 25.1634 83.2847 25.2987C83.3649 25.4339 83.4911 25.5354 83.6631 25.603C83.8353 25.6705 84.0532 25.7043 84.3516 25.7043C84.5349 25.7043 84.7185 25.7043 84.902 25.6931C85.0856 25.6818 85.2692 25.6593 85.4527 25.6142V27.5863C85.166 27.6201 84.8791 27.6427 84.6153 27.6765C84.34 27.7103 84.0647 27.7215 83.7778 27.7215C83.0896 27.7215 82.5389 27.6539 82.126 27.53C81.7131 27.406 81.3804 27.2143 81.1509 26.9665C80.91 26.7186 80.7609 26.4143 80.6691 26.0424C80.5796 25.6235 80.5297 25.1972 80.52 24.769V17.9512H78.5584V16.0243H78.5353ZM87.2652 16.0243H89.7201V17.5906H89.766C90.1331 16.9146 90.6378 16.4412 91.2918 16.1482C91.9456 15.8553 92.6454 15.7088 93.4139 15.7088C94.3432 15.7088 95.1461 15.8665 95.8345 16.1934C96.5228 16.5088 97.0963 16.9484 97.5552 17.5118C98.0141 18.0753 98.3467 18.7288 98.5761 19.4726C98.8056 20.2164 98.9203 21.0164 98.9203 21.8616C98.9203 22.6392 98.817 23.3942 98.6105 24.1154C98.4041 24.848 98.0943 25.4902 97.6814 26.0537C97.2683 26.6171 96.7407 27.0566 96.0983 27.3947C95.4559 27.7328 94.7103 27.9018 93.8385 27.9018C93.4577 27.9016 93.0776 27.8677 92.7027 27.8004C92.3283 27.7328 91.9628 27.6231 91.6129 27.4736C91.2687 27.3271 90.9361 27.1356 90.6494 26.8989C90.3511 26.6622 90.1103 26.3918 89.9036 26.0875H89.8578V31.8573H87.2652V16.0243ZM96.3277 21.8166C96.3277 21.2982 96.259 20.7911 96.1212 20.2952C95.9836 19.7994 95.7772 19.3713 95.5018 18.9881C95.2329 18.6123 94.8842 18.3006 94.4808 18.0753C94.0679 17.8499 93.5974 17.7259 93.0698 17.7259C91.9801 17.7259 91.1541 18.0978 90.6034 18.8416C90.0527 19.5854 89.7774 20.577 89.7774 21.8166C89.7774 22.4025 89.8463 22.9434 89.9954 23.4393C90.1445 23.9351 90.3511 24.3634 90.6494 24.724C90.9361 25.0846 91.2803 25.3663 91.6818 25.5692C92.0832 25.7833 92.5536 25.8846 93.0814 25.8846C93.6778 25.8846 94.1712 25.7607 94.5841 25.524C94.997 25.2874 95.3297 24.9719 95.5936 24.5999C95.8642 24.2077 96.0588 23.7681 96.1672 23.304C96.2703 22.8195 96.3277 22.3237 96.3277 21.8166ZM100.905 11.6182H103.497V14.0297H100.905V11.6182ZM100.905 16.0243H103.497V27.5863H100.905V16.0243ZM105.815 11.6182H108.407V27.5863H105.815V11.6182ZM116.357 27.9018C115.416 27.9018 114.579 27.7441 113.845 27.4398C113.111 27.1356 112.491 26.7072 111.975 26.1777C111.47 25.6368 111.08 24.9945 110.816 24.2507C110.552 23.5069 110.415 22.6843 110.415 21.794C110.415 20.9151 110.552 20.1037 110.816 19.3599C111.08 18.6163 111.47 17.9738 111.975 17.4329C112.48 16.892 113.111 16.475 113.845 16.1708C114.579 15.8665 115.416 15.7088 116.357 15.7088C117.298 15.7088 118.135 15.8665 118.869 16.1708C119.603 16.475 120.223 16.9034 120.739 17.4329C121.244 17.9738 121.634 18.6163 121.898 19.3599C122.162 20.1037 122.299 20.9151 122.299 21.794C122.299 22.6843 122.162 23.5069 121.898 24.2507C121.634 24.9945 121.244 25.6368 120.739 26.1777C120.234 26.7186 119.603 27.1356 118.869 27.4398C118.135 27.7441 117.298 27.9018 116.357 27.9018ZM116.357 25.8846C116.93 25.8846 117.435 25.7607 117.86 25.524C118.284 25.2874 118.628 24.9719 118.904 24.5887C119.179 24.2055 119.374 23.7661 119.512 23.2816C119.638 22.7969 119.707 22.3011 119.707 21.794C119.707 21.2982 119.638 20.8137 119.512 20.3178C119.394 19.8474 119.187 19.4038 118.904 19.0107C118.628 18.6275 118.284 18.3232 117.86 18.0865C117.435 17.8499 116.93 17.7259 116.357 17.7259C115.783 17.7259 115.279 17.8499 114.854 18.0865C114.43 18.3232 114.086 18.6387 113.81 19.0107C113.535 19.3937 113.34 19.822 113.202 20.3178C113.076 20.8137 113.007 21.2982 113.007 21.794C113.007 22.3011 113.076 22.7969 113.202 23.2816C113.328 23.7661 113.535 24.2055 113.81 24.5887C114.086 24.9719 114.43 25.2874 114.854 25.524C115.279 25.7719 115.783 25.8846 116.357 25.8846ZM123.056 16.0243H125.018V12.5535H127.611V16.0243H129.951V17.9288H127.611V24.1042C127.611 24.3746 127.622 24.5999 127.645 24.8028C127.668 24.9945 127.725 25.1634 127.806 25.2987C127.886 25.4339 128.012 25.5354 128.184 25.603C128.356 25.6705 128.574 25.7043 128.872 25.7043C129.056 25.7043 129.239 25.7043 129.423 25.6931C129.607 25.6818 129.79 25.6593 129.974 25.6142V27.5863C129.687 27.6201 129.4 27.6427 129.136 27.6765C128.861 27.7103 128.586 27.7215 128.299 27.7215C127.611 27.7215 127.06 27.6539 126.647 27.53C126.234 27.406 125.901 27.2143 125.672 26.9665C125.431 26.7186 125.282 26.4143 125.19 26.0424C125.101 25.6235 125.051 25.1972 125.041 24.769V17.9512H123.079V16.0243H123.056Z" fill="white"/>
<path d="M31.1222 11.6181H19.2377L15.5668 0.506836L11.8843 11.6181L0 11.6068L9.62453 18.4809L5.94209 29.5809L15.5668 22.7181L25.1799 29.5809L21.509 18.4809L31.1222 11.618V11.6181Z" fill="#04DA8D"/>
<path d="M22.3346 20.994L21.5087 18.481L15.5664 22.7181L22.3346 20.994Z" fill="#126849"/>
</g>
</g>
<defs>
<clipPath id="clip0_2167_13377">
<rect width="129.949" height="32" fill="white" transform="translate(0 0.0883789)"/>
</clipPath>
</defs>
</svg>
