<svg width="130" height="33" viewBox="0 0 130 33" fill="none" xmlns="http://www.w3.org/2000/svg">
<g clip-path="url(#clip0_2159_5761)">
<mask id="mask0_2159_5761" style="mask-type:luminance" maskUnits="userSpaceOnUse" x="0" y="0" width="130" height="33">
<path d="M0 0.0878906H129.949V32.0016H0V0.0878906Z" fill="white"/>
</mask>
<g mask="url(#mask0_2159_5761)">
<path d="M34.1522 11.6172H47.31V14.0287H42.1364V27.5853H39.2913V14.0287H34.1406V11.6172H34.1522ZM46.7478 16.0233H49.1798V18.2547H49.2258C49.306 17.9391 49.4551 17.6348 49.6731 17.3418C49.8911 17.0487 50.1549 16.7671 50.4647 16.5304C50.7745 16.2825 51.1185 16.091 51.4971 15.9331C51.8756 15.7868 52.2656 15.7078 52.6556 15.7078C52.954 15.7078 53.1719 15.7192 53.2867 15.7304C53.4014 15.7416 53.5161 15.7642 53.6423 15.7754V18.2321C53.4587 18.1983 53.2752 18.1757 53.0801 18.1531C52.8852 18.1306 52.7016 18.1194 52.518 18.1194C52.0821 18.1194 51.6692 18.2095 51.2791 18.3786C50.8891 18.5475 50.5565 18.8068 50.2696 19.1336C49.9829 19.4716 49.7534 19.8772 49.5814 20.3732C49.4093 20.8689 49.3289 21.4324 49.3289 22.0749V27.574H46.7364V16.0233H46.7478ZM65.5612 27.5853H63.0145V25.9738H62.9686C62.6474 26.5599 62.177 27.0219 61.5461 27.3713C60.9152 27.7205 60.2728 27.9008 59.619 27.9008C58.0703 27.9008 56.9461 27.529 56.2578 26.774C55.5694 26.019 55.2254 24.8808 55.2254 23.3594V16.0233H57.8179V23.1115C57.8179 24.1258 58.0129 24.847 58.4143 25.264C58.8045 25.6808 59.3665 25.895 60.0778 25.895C60.6283 25.895 61.0758 25.8161 61.4428 25.647C61.8099 25.4781 62.1083 25.264 62.3261 24.9821C62.5556 24.7117 62.7161 24.3737 62.8194 23.9905C62.9228 23.6073 62.9686 23.1905 62.9686 22.7397V16.0346H65.5612V27.5853ZM69.9777 23.8777C70.0579 24.6215 70.3448 25.1399 70.838 25.4443C71.3428 25.7371 71.9393 25.895 72.6391 25.895C72.88 25.895 73.1553 25.8725 73.465 25.8387C73.7636 25.8048 74.0566 25.7329 74.3368 25.6246C74.6122 25.5231 74.8302 25.3653 75.0137 25.1624C75.1857 24.9596 75.266 24.7005 75.2546 24.3737C75.2431 24.0468 75.1169 23.7764 74.8875 23.5735C74.658 23.3594 74.3713 23.2017 74.0157 23.0664C73.6186 22.9289 73.2123 22.8197 72.7997 22.7397C72.3408 22.6496 71.8819 22.548 71.4117 22.4467C70.9297 22.3451 70.4595 22.21 70.0121 22.0635C69.5646 21.917 69.1632 21.7142 68.8075 21.455C68.4519 21.2071 68.1652 20.8803 67.9588 20.4859C67.7408 20.0915 67.6375 19.6068 67.6375 19.0209C67.6375 18.3898 67.7981 17.8715 68.1079 17.4433C68.4175 17.015 68.819 16.6769 69.2895 16.4177C69.7712 16.1586 70.2988 15.9783 70.8839 15.8656C71.469 15.7642 72.0311 15.7078 72.5588 15.7078C73.1668 15.7078 73.7518 15.7754 74.3024 15.8995C74.8531 16.0233 75.3578 16.2262 75.8053 16.5192C76.2526 16.8009 76.6197 17.1728 76.918 17.6236C77.2162 18.0744 77.3997 18.6265 77.48 19.2688H74.7728C74.6466 18.6603 74.3713 18.2433 73.9239 18.0404C73.4764 17.8263 72.9602 17.725 72.3866 17.725C72.2031 17.725 71.9853 17.7362 71.7328 17.77C71.4907 17.8023 71.2523 17.859 71.0215 17.9391C70.8037 18.018 70.6201 18.1419 70.4595 18.2997C70.3104 18.4574 70.2301 18.6603 70.2301 18.9195C70.2301 19.235 70.3448 19.4829 70.5628 19.6745C70.7806 19.866 71.0675 20.0238 71.4231 20.1591C71.8201 20.2967 72.2265 20.4059 72.6391 20.4859C73.0979 20.576 73.5682 20.6774 74.05 20.7788C74.5204 20.8803 74.9793 21.0154 75.4382 21.162C75.8971 21.3085 76.2984 21.5114 76.6542 21.7704C77.0097 22.0297 77.2964 22.3451 77.5144 22.7283C77.7324 23.1115 77.8471 23.5961 77.8471 24.1596C77.8471 24.847 77.6866 25.4217 77.3653 25.9062C77.0442 26.3796 76.6311 26.774 76.1264 27.0669C75.6217 27.3599 75.0482 27.5853 74.4286 27.7205C73.822 27.8542 73.2028 27.9222 72.5817 27.9234C71.8361 27.9234 71.1477 27.8444 70.5168 27.6755C69.8859 27.5064 69.3353 27.2585 68.8764 26.9317C68.4175 26.5937 68.0504 26.1767 67.7866 25.6808C67.5228 25.185 67.385 24.5877 67.3621 23.9003H69.9777V23.8777ZM78.5353 16.0233H80.4971V12.5525H83.0896V16.0233H85.4298V17.9278H83.0896V24.1032C83.0896 24.3737 83.1011 24.599 83.124 24.8018C83.1469 24.9935 83.2043 25.1624 83.2847 25.2978C83.3649 25.4329 83.4911 25.5344 83.6631 25.602C83.8353 25.6696 84.0532 25.7034 84.3516 25.7034C84.5349 25.7034 84.7185 25.7034 84.902 25.6922C85.0856 25.6808 85.2692 25.6584 85.4527 25.6132V27.5853C85.166 27.6191 84.8791 27.6417 84.6153 27.6755C84.34 27.7093 84.0647 27.7205 83.7778 27.7205C83.0896 27.7205 82.5389 27.6529 82.126 27.529C81.7131 27.405 81.3804 27.2134 81.1509 26.9655C80.91 26.7176 80.7609 26.4134 80.6691 26.0414C80.5796 25.6226 80.5297 25.1962 80.52 24.7681V17.9503H78.5584V16.0233H78.5353ZM87.2652 16.0233H89.7201V17.5897H89.766C90.1331 16.9136 90.6378 16.4403 91.2918 16.1472C91.9456 15.8543 92.6454 15.7078 93.4139 15.7078C94.3432 15.7078 95.1461 15.8656 95.8345 16.1924C96.5228 16.5078 97.0963 16.9474 97.5552 17.5109C98.0141 18.0744 98.3467 18.7278 98.5761 19.4716C98.8056 20.2154 98.9203 21.0154 98.9203 21.8606C98.9203 22.6382 98.817 23.3932 98.6105 24.1144C98.4041 24.847 98.0943 25.4893 97.6814 26.0528C97.2683 26.6161 96.7407 27.0556 96.0983 27.3937C95.4559 27.7319 94.7103 27.9008 93.8385 27.9008C93.4577 27.9006 93.0776 27.8667 92.7027 27.7994C92.3283 27.7318 91.9628 27.6222 91.6129 27.4726C91.2687 27.3261 90.9361 27.1346 90.6494 26.8979C90.3511 26.6612 90.1103 26.3908 89.9036 26.0865H89.8578V31.8563H87.2652V16.0233ZM96.3277 21.8156C96.3277 21.2973 96.259 20.7901 96.1212 20.2942C95.9836 19.7985 95.7772 19.3703 95.5018 18.9871C95.2329 18.6113 94.8842 18.2997 94.4808 18.0744C94.0679 17.8489 93.5974 17.725 93.0698 17.725C91.9801 17.725 91.1541 18.0968 90.6034 18.8406C90.0527 19.5844 89.7774 20.5761 89.7774 21.8156C89.7774 22.4015 89.8463 22.9424 89.9954 23.4383C90.1445 23.9341 90.3511 24.3624 90.6494 24.7231C90.9361 25.0837 91.2803 25.3653 91.6818 25.5682C92.0832 25.7823 92.5536 25.8837 93.0814 25.8837C93.6778 25.8837 94.1712 25.7597 94.5841 25.5231C94.997 25.2864 95.3297 24.9709 95.5936 24.599C95.8642 24.2067 96.0588 23.7671 96.1672 23.303C96.2703 22.8185 96.3277 22.3227 96.3277 21.8156ZM100.905 11.6172H103.497V14.0287H100.905V11.6172ZM100.905 16.0233H103.497V27.5853H100.905V16.0233ZM105.815 11.6172H108.407V27.5853H105.815V11.6172ZM116.357 27.9008C115.416 27.9008 114.579 27.7431 113.845 27.4388C113.111 27.1346 112.491 26.7062 111.975 26.1767C111.47 25.6358 111.08 24.9935 110.816 24.2497C110.552 23.5059 110.415 22.6833 110.415 21.793C110.415 20.9141 110.552 20.1027 110.816 19.3589C111.08 18.6153 111.47 17.9728 111.975 17.4319C112.48 16.891 113.111 16.474 113.845 16.1698C114.579 15.8656 115.416 15.7078 116.357 15.7078C117.298 15.7078 118.135 15.8656 118.869 16.1698C119.603 16.474 120.223 16.9024 120.739 17.4319C121.244 17.9728 121.634 18.6153 121.898 19.3589C122.162 20.1027 122.299 20.9141 122.299 21.793C122.299 22.6833 122.162 23.5059 121.898 24.2497C121.634 24.9935 121.244 25.6358 120.739 26.1767C120.234 26.7176 119.603 27.1346 118.869 27.4388C118.135 27.7431 117.298 27.9008 116.357 27.9008ZM116.357 25.8837C116.93 25.8837 117.435 25.7597 117.86 25.5231C118.284 25.2864 118.628 24.9709 118.904 24.5877C119.179 24.2046 119.374 23.7652 119.512 23.2806C119.638 22.7959 119.707 22.3002 119.707 21.793C119.707 21.2973 119.638 20.8127 119.512 20.3168C119.394 19.8465 119.187 19.4029 118.904 19.0097C118.628 18.6265 118.284 18.3222 117.86 18.0856C117.435 17.8489 116.93 17.725 116.357 17.725C115.783 17.725 115.279 17.8489 114.854 18.0856C114.43 18.3222 114.086 18.6377 113.81 19.0097C113.535 19.3927 113.34 19.821 113.202 20.3168C113.076 20.8127 113.007 21.2973 113.007 21.793C113.007 22.3002 113.076 22.7959 113.202 23.2806C113.328 23.7652 113.535 24.2046 113.81 24.5877C114.086 24.9709 114.43 25.2864 114.854 25.5231C115.279 25.7709 115.783 25.8837 116.357 25.8837ZM123.056 16.0233H125.018V12.5525H127.611V16.0233H129.951V17.9278H127.611V24.1032C127.611 24.3737 127.622 24.599 127.645 24.8018C127.668 24.9935 127.725 25.1624 127.806 25.2978C127.886 25.4329 128.012 25.5344 128.184 25.602C128.356 25.6696 128.574 25.7034 128.872 25.7034C129.056 25.7034 129.239 25.7034 129.423 25.6922C129.607 25.6808 129.79 25.6584 129.974 25.6132V27.5853C129.687 27.6191 129.4 27.6417 129.136 27.6755C128.861 27.7093 128.586 27.7205 128.299 27.7205C127.611 27.7205 127.06 27.6529 126.647 27.529C126.234 27.405 125.901 27.2134 125.672 26.9655C125.431 26.7176 125.282 26.4134 125.19 26.0414C125.101 25.6226 125.051 25.1962 125.041 24.7681V17.9503H123.079V16.0233H123.056Z" fill="black"/>
<path d="M31.1222 11.6172H19.2377L15.5668 0.505859L11.8843 11.6172L0 11.6058L9.62453 18.4799L5.94209 29.5799L15.5668 22.7171L25.1799 29.5799L21.509 18.4799L31.1222 11.617V11.6172Z" fill="#04DA8D"/>
<path d="M22.3346 20.9935L21.5087 18.4805L15.5664 22.7176L22.3346 20.9935Z" fill="#126849"/>
</g>
</g>
<defs>
<clipPath id="clip0_2159_5761">
<rect width="129.949" height="32" fill="white" transform="translate(0 0.0878906)"/>
</clipPath>
</defs>
</svg>
